<svg xmlns="http://www.w3.org/2000/svg" xml:space="preserve" width="37mm" height="8.5mm" version="1.1" style="shape-rendering:geometricPrecision; text-rendering:geometricPrecision; image-rendering:optimizeQuality; fill-rule:evenodd; clip-rule:evenodd"
viewBox="0 0 3700 850"
 xmlns:xlink="http://www.w3.org/1999/xlink">
 <defs>
  <style type="text/css">
   <![CDATA[
    .fil1 {fill:none}
    .fil0 {fill:white}
   ]]>
  </style>
 </defs>
 <g id="Camada_x0020_1">
  <metadata id="CorelCorpID_0Corel-Layer"/>
  <path class="fil0" d="M2069.44 268.28c-21.64,9.5 -44.71,15.79 -68.76,18.85 24.74,-14.77 43.62,-37.98 52.5,-65.96 -23.07,13.75 -48.53,23.47 -75.67,28.89 -21.9,-23.32 -53.12,-37.77 -87.17,-37.77 -66.06,0 -119.25,53.63 -119.25,119.37 0,9.46 0.8,18.55 2.76,27.21 -99.2,-4.84 -186.98,-52.39 -245.95,-124.82 -10.3,17.86 -16.34,38.31 -16.34,60.32 0,41.33 21.28,77.96 53.01,99.17 -19.18,-0.36 -37.98,-5.93 -53.92,-14.7 0,0.37 0,0.84 0,1.31 0,57.99 41.37,106.15 95.61,117.25 -9.71,2.65 -20.3,3.93 -31.29,3.93 -7.64,0 -15.35,-0.44 -22.59,-2.04 15.46,47.26 59.34,82 111.51,83.13 -40.61,31.76 -92.16,50.89 -147.96,50.89 -9.79,0 -19.18,-0.43 -28.56,-1.63 52.86,34.08 115.51,53.55 183.06,53.55 219.58,0 339.64,-181.9 339.64,-339.57 0,-5.27 -0.18,-10.36 -0.44,-15.42 23.69,-16.81 43.58,-37.8 59.81,-61.96z"/>
  <path class="fil0" d="M419.87 227.46l47.94 0 0 -83.49c-8.27,-1.13 -36.71,-3.69 -69.84,-3.69 -69.11,0 -116.45,43.47 -116.45,123.36l0 73.54 -76.27 0 0 93.33 76.27 0 0 234.83 93.5 0 0 -234.81 73.18 0 11.62 -93.33 -84.82 0 0 -64.3c0.02,-26.98 7.29,-45.44 44.87,-45.44z"/>
  <path class="fil0" d="M3010.59 407.72c0,-80.36 65.16,-145.52 145.52,-145.52 80.36,0 145.52,65.16 145.52,145.52 0,80.36 -65.16,145.52 -145.52,145.52 -80.36,0 -145.52,-65.16 -145.52,-145.52zm54.57 0c0,50.13 40.82,90.95 90.95,90.95 50.13,0 90.95,-40.82 90.95,-90.95 0,-50.17 -40.82,-90.95 -90.95,-90.95 -50.13,0 -90.95,40.78 -90.95,90.95z"/>
  <path class="fil0" d="M3050.26 120.93l218.28 0c100.45,0 181.9,81.45 181.9,181.9l0 218.28c0,100.45 -81.45,181.9 -181.9,181.9l-218.28 0c-100.45,0 -181.9,-81.45 -181.9,-181.9l0 -218.28c0,-100.45 81.45,-181.9 181.9,-181.9zm218.28 527.51c70.21,0 127.33,-57.12 127.33,-127.33l0 -218.28c0,-70.21 -57.12,-127.33 -127.33,-127.33l-218.28 0c-70.21,0 -127.33,57.12 -127.33,127.33l0 218.28c0,70.21 57.12,127.33 127.33,127.33l218.28 0z"/>
  <rect class="fil1" x="22.23" y="24.82" width="3651.25" height="811.39"/>
 </g>
</svg>
