<svg xmlns="http://www.w3.org/2000/svg" xml:space="preserve" width="37mm" height="8.5mm" version="1.1" style="shape-rendering:geometricPrecision; text-rendering:geometricPrecision; image-rendering:optimizeQuality; fill-rule:evenodd; clip-rule:evenodd"
viewBox="0 0 3700 850"
 xmlns:xlink="http://www.w3.org/1999/xlink">
 <defs>
  <style type="text/css">
   <![CDATA[
    .fil0 {fill:none}
    .fil1 {fill:#FEFEFE}
    .fil2 {fill:white}
   ]]>
  </style>
 </defs>
 <g id="Camada_x0020_1">
  <metadata id="CorelCorpID_0Corel-Layer"/>
  <g id="_959260219552">
   <rect class="fil0" x="22.23" y="24.82" width="3651.25" height="811.39"/>
   <g>
    <polygon class="fil1" points="1521.31,578.1 1521.31,236.88 1562.26,236.88 1562.26,545.44 1721.18,545.44 1721.18,578.1 "/>
    <path class="fil1" d="M1793.2 282.7c-8.13,0 -14.95,-2.6 -20.48,-7.8 -5.2,-5.53 -7.8,-12.35 -7.8,-20.48 0,-7.8 2.6,-14.3 7.8,-19.5 5.53,-5.2 12.35,-7.79 20.48,-7.79 7.79,0 14.46,2.59 19.98,7.79 5.52,5.2 8.29,11.7 8.29,19.5 0,8.13 -2.77,14.95 -8.29,20.48 -5.52,5.2 -12.19,7.8 -19.98,7.8zm-20.48 295.4l0 -241.79 40.95 0 0 241.79 -40.95 0z"/>
    <path class="fil1" d="M2007.5 583.95c-19.82,0 -37.54,-4.07 -53.14,-12.19 -15.27,-8.12 -26.97,-19.49 -35.1,-34.12l-3.9 40.46 -37.05 0 0 -350.97 40.95 0 0 149.15c7.8,-11.69 18.86,-22.25 33.15,-31.68 14.62,-9.42 33.15,-14.13 55.57,-14.13 24.05,0 45.01,5.53 62.89,16.57 17.87,11.05 31.68,26.16 41.43,45.33 10.07,19.18 15.11,40.95 15.11,65.32 0,24.38 -5.04,46.15 -15.11,65.32 -9.75,18.85 -23.72,33.8 -41.93,44.85 -17.87,10.73 -38.83,16.09 -62.87,16.09zm-4.39 -35.59c16.25,0 30.54,-3.73 42.89,-11.21 12.36,-7.8 22.1,-18.52 29.25,-32.18 7.15,-13.64 10.72,-29.57 10.72,-47.76 0,-18.2 -3.57,-34.13 -10.72,-47.77 -7.15,-13.65 -16.89,-24.21 -29.25,-31.69 -12.35,-7.8 -26.64,-11.7 -42.89,-11.7 -16.26,0 -30.55,3.9 -42.9,11.7 -12.35,7.48 -22.09,18.04 -29.25,31.69 -7.15,13.64 -10.72,29.57 -10.72,47.77 0,18.19 3.57,34.12 10.72,47.76 7.16,13.66 16.9,24.38 29.25,32.18 12.35,7.48 26.64,11.21 42.9,11.21z"/>
    <path class="fil1" d="M2270.38 583.95c-28.93,0 -52.97,-7.32 -72.15,-21.94 -19.17,-14.62 -30.38,-34.45 -33.63,-59.47l41.92 0c2.6,12.68 9.27,23.72 19.99,33.15 11.04,9.1 25.83,13.64 44.36,13.64 17.22,0 29.89,-3.56 38.02,-10.72 8.12,-7.47 12.19,-16.24 12.19,-26.32 0,-14.63 -5.37,-24.37 -16.09,-29.25 -10.4,-4.87 -25.19,-9.26 -44.36,-13.16 -13,-2.6 -26,-6.33 -39,-11.21 -13,-4.87 -23.88,-11.7 -32.66,-20.47 -8.77,-9.11 -13.15,-20.96 -13.15,-35.59 0,-21.12 7.79,-38.34 23.39,-51.67 15.92,-13.65 37.37,-20.47 64.34,-20.47 25.68,0 46.63,6.5 62.89,19.49 16.57,12.68 26.16,30.88 28.76,54.61l-40.46 0c-1.63,-12.36 -6.99,-21.95 -16.09,-28.77 -8.77,-7.15 -20.63,-10.72 -35.58,-10.72 -14.62,0 -26,3.08 -34.13,9.26 -7.79,6.17 -11.7,14.3 -11.7,24.37 0,9.75 5.05,17.39 15.12,22.91 10.39,5.52 24.37,10.24 41.92,14.14 14.95,3.25 29.09,7.31 42.41,12.18 13.65,4.55 24.7,11.54 33.15,20.97 8.77,9.1 13.16,22.42 13.16,39.97 0.32,21.77 -7.96,39.81 -24.86,54.1 -16.58,13.98 -39.16,20.97 -67.76,20.97z"/>
    <polygon class="fil1" points="2414.85,578.1 2414.85,227.13 2455.79,227.13 2455.79,578.1 "/>
    <path class="fil1" d="M2541.12 282.7c-8.13,0 -14.95,-2.6 -20.48,-7.8 -5.19,-5.53 -7.8,-12.35 -7.8,-20.48 0,-7.8 2.61,-14.3 7.8,-19.5 5.53,-5.2 12.35,-7.79 20.48,-7.79 7.79,0 14.46,2.59 19.99,7.79 5.52,5.2 8.28,11.7 8.28,19.5 0,8.13 -2.76,14.95 -8.28,20.48 -5.53,5.2 -12.2,7.8 -19.99,7.8zm-20.48 295.4l0 -241.79 40.95 0 0 241.79 -40.95 0z"/>
    <path class="fil1" d="M2735.91 583.95c-24.04,0 -45.16,-5.52 -63.37,-16.58 -17.87,-11.04 -31.83,-26.16 -41.91,-45.33 -9.76,-19.18 -14.63,-40.95 -14.63,-65.32 0,-24.38 5.04,-45.98 15.12,-64.83 10.07,-19.17 24.04,-34.12 41.91,-44.85 17.88,-11.04 38.99,-16.57 63.37,-16.57 19.83,0 37.38,4.06 52.64,12.18 15.29,8.13 27.14,19.5 35.58,34.13l0 -149.65 40.96 0 0 350.97 -37.05 0 -3.91 -39.97c-7.79,11.7 -19.01,22.26 -33.63,31.68 -14.62,9.42 -32.97,14.14 -55.08,14.14zm4.38 -35.59c16.27,0 30.56,-3.73 42.91,-11.21 12.67,-7.8 22.41,-18.52 29.24,-32.18 7.16,-13.64 10.73,-29.57 10.73,-47.76 0,-18.2 -3.57,-34.13 -10.73,-47.77 -6.83,-13.65 -16.57,-24.21 -29.24,-31.69 -12.35,-7.8 -26.64,-11.7 -42.91,-11.7 -15.9,0 -30.22,3.9 -42.89,11.7 -12.34,7.48 -22.09,18.04 -29.24,31.69 -6.83,13.64 -10.24,29.57 -10.24,47.77 0,18.19 3.41,34.12 10.24,47.76 7.15,13.66 16.9,24.38 29.24,32.18 12.67,7.48 26.99,11.21 42.89,11.21z"/>
    <path class="fil1" d="M3034.4 583.95c-23.08,0 -43.55,-5.2 -61.43,-15.6 -17.88,-10.73 -32.02,-25.51 -42.41,-44.36 -10.08,-18.85 -15.11,-41.11 -15.11,-66.78 0,-25.35 5.03,-47.44 15.11,-66.3 10.08,-19.17 24.04,-33.96 41.92,-44.35 18.19,-10.73 39.15,-16.09 62.89,-16.09 23.4,0 43.54,5.36 60.44,16.09 17.22,10.39 30.38,24.21 39.49,41.42 9.1,17.23 13.64,35.75 13.64,55.58 0,3.57 -0.15,7.15 -0.48,10.72 0,3.58 0,7.64 0,12.19l-192.55 0c0.97,18.52 5.21,33.96 12.67,46.31 7.81,12.03 17.39,21.12 28.77,27.29 11.7,6.18 24.03,9.26 37.05,9.26 16.9,0 31.03,-3.89 42.4,-11.69 11.37,-7.8 19.65,-18.36 24.86,-31.69l40.46 0c-6.49,22.42 -19.01,41.11 -37.53,56.06 -18.2,14.62 -41.6,21.94 -70.19,21.94zm0 -218.87c-19.51,0 -36.9,6.01 -52.17,18.03 -14.96,11.7 -23.55,28.93 -25.83,51.67l152.08 0c-0.97,-21.77 -8.44,-38.83 -22.41,-51.18 -13.99,-12.35 -31.21,-18.52 -51.67,-18.52z"/>
    <polygon class="fil1" points="821.6,91.06 443.84,335.27 612.07,444.01 821.6,308.55 1031.14,444.01 1199.36,335.27 "/>
    <polygon class="fil1" points="612.07,444.01 443.84,552.75 821.6,796.96 1199.36,552.75 1031.15,444.01 821.6,579.47 "/>
   </g>
  </g>
  <g id="_959260215008">
   <polygon class="fil2" points="201.56,-1645.77 201.56,-2053.22 250.45,-2053.22 250.45,-1684.76 440.21,-1684.76 440.21,-1645.77 "/>
   <path class="fil2" d="M526.22 -1998.51c-9.7,0 -17.85,-3.1 -24.45,-9.31 -6.21,-6.6 -9.31,-14.75 -9.31,-24.45 0,-9.31 3.1,-17.07 9.31,-23.28 6.6,-6.21 14.75,-9.31 24.45,-9.31 9.31,0 17.27,3.1 23.86,9.31 6.6,6.21 9.9,13.97 9.9,23.28 0,9.7 -3.3,17.85 -9.9,24.45 -6.59,6.21 -14.55,9.31 -23.86,9.31zm-24.45 352.74l0 -288.71 48.9 0 0 288.71 -48.9 0z"/>
   <path class="fil2" d="M782.12 -1638.78c-23.67,0 -44.83,-4.85 -63.45,-14.55 -18.24,-9.7 -32.21,-23.29 -41.91,-40.75l-4.66 48.31 -44.24 0 0 -419.09 48.9 0 0 178.11c9.31,-13.97 22.51,-26.58 39.58,-37.83 17.46,-11.26 39.58,-16.88 66.36,-16.88 28.71,0 53.74,6.59 75.09,19.79 21.34,13.19 37.83,31.24 49.47,54.13 12.03,22.9 18.05,48.9 18.05,78 0,29.1 -6.02,55.11 -18.05,78 -11.64,22.51 -28.32,40.36 -50.06,53.55 -21.34,12.81 -46.37,19.21 -75.08,19.21zm-5.24 -42.49c19.4,0 36.47,-4.47 51.22,-13.39 14.75,-9.31 26.39,-22.12 34.92,-38.42 8.54,-16.3 12.81,-35.31 12.81,-57.04 0,-21.73 -4.27,-40.75 -12.81,-57.05 -8.53,-16.29 -20.17,-28.91 -34.92,-37.83 -14.75,-9.31 -31.82,-13.97 -51.22,-13.97 -19.41,0 -36.48,4.66 -51.23,13.97 -14.74,8.92 -26.38,21.54 -34.92,37.83 -8.54,16.3 -12.81,35.32 -12.81,57.05 0,21.73 4.27,40.74 12.81,57.04 8.54,16.3 20.18,29.11 34.92,38.42 14.75,8.92 31.82,13.39 51.23,13.39z"/>
   <path class="fil2" d="M1096.03 -1638.78c-34.54,0 -63.25,-8.73 -86.15,-26.19 -22.9,-17.47 -36.28,-41.14 -40.16,-71.02l50.06 0c3.1,15.14 11.06,28.33 23.86,39.58 13.19,10.87 30.85,16.3 52.97,16.3 20.57,0 35.7,-4.27 45.4,-12.8 9.7,-8.93 14.56,-19.41 14.56,-31.44 0,-17.46 -6.41,-29.1 -19.21,-34.92 -12.42,-5.82 -30.08,-11.06 -52.97,-15.72 -15.52,-3.1 -31.05,-7.56 -46.57,-13.39 -15.52,-5.82 -28.52,-13.97 -39,-24.44 -10.48,-10.87 -15.71,-25.03 -15.71,-42.49 0,-25.23 9.31,-45.8 27.94,-61.71 19.01,-16.29 44.62,-24.44 76.83,-24.44 30.66,0 55.68,7.76 75.09,23.28 19.78,15.13 31.23,36.87 34.33,65.19l-48.3 0c-1.94,-14.74 -8.35,-26.19 -19.21,-34.34 -10.48,-8.54 -24.64,-12.81 -42.49,-12.81 -17.46,0 -31.05,3.69 -40.75,11.06 -9.31,7.38 -13.97,17.08 -13.97,29.11 0,11.64 6.02,20.76 18.05,27.36 12.41,6.59 29.1,12.22 50.06,16.88 17.85,3.88 34.73,8.73 50.64,14.55 16.3,5.43 29.48,13.78 39.57,25.03 10.48,10.86 15.72,26.77 15.72,47.73 0.38,26 -9.51,47.54 -29.68,64.61 -19.79,16.69 -46.76,25.03 -80.91,25.03z"/>
   <polygon class="fil2" points="1268.53,-1645.77 1268.53,-2064.86 1317.42,-2064.86 1317.42,-1645.77 "/>
   <path class="fil2" d="M1419.31 -1998.51c-9.7,0 -17.85,-3.1 -24.45,-9.31 -6.2,-6.6 -9.31,-14.75 -9.31,-24.45 0,-9.31 3.11,-17.07 9.31,-23.28 6.6,-6.21 14.75,-9.31 24.45,-9.31 9.31,0 17.27,3.1 23.87,9.31 6.6,6.21 9.89,13.97 9.89,23.28 0,9.7 -3.29,17.85 -9.89,24.45 -6.6,6.21 -14.56,9.31 -23.87,9.31zm-24.45 352.74l0 -288.71 48.9 0 0 288.71 -48.9 0z"/>
   <path class="fil2" d="M1651.93 -1638.78c-28.72,0 -53.95,-6.6 -75.68,-19.79 -21.34,-13.2 -38.02,-31.24 -50.05,-54.13 -11.65,-22.9 -17.47,-48.9 -17.47,-78 0,-29.11 6.02,-54.91 18.05,-77.42 12.03,-22.9 28.71,-40.75 50.06,-53.55 21.34,-13.2 46.56,-19.79 75.67,-19.79 23.67,0 44.62,4.85 62.86,14.55 18.24,9.7 32.41,23.28 42.49,40.74l0 -178.69 48.9 0 0 419.09 -44.24 0 -4.66 -47.73c-9.31,13.97 -22.7,26.59 -40.16,37.84 -17.46,11.25 -39.39,16.88 -65.77,16.88zm5.23 -42.49c19.41,0 36.48,-4.47 51.23,-13.39 15.13,-9.31 26.77,-22.12 34.92,-38.42 8.54,-16.3 12.81,-35.31 12.81,-57.04 0,-21.73 -4.27,-40.75 -12.81,-57.05 -8.15,-16.29 -19.79,-28.91 -34.92,-37.83 -14.75,-9.31 -31.82,-13.97 -51.23,-13.97 -19.01,0 -36.09,4.66 -51.22,13.97 -14.74,8.92 -26.39,21.54 -34.92,37.83 -8.15,16.3 -12.23,35.32 -12.23,57.05 0,21.73 4.08,40.74 12.23,57.04 8.53,16.3 20.18,29.11 34.92,38.42 15.13,8.92 32.21,13.39 51.22,13.39z"/>
   <path class="fil2" d="M2008.33 -1638.78c-27.55,0 -52,-6.21 -73.34,-18.63 -21.34,-12.8 -38.22,-30.46 -50.64,-52.97 -12.03,-22.5 -18.05,-49.08 -18.05,-79.74 0,-30.27 6.02,-56.66 18.05,-79.16 12.03,-22.9 28.71,-40.56 50.06,-52.97 21.73,-12.81 46.76,-19.21 75.08,-19.21 27.94,0 52.01,6.4 72.18,19.21 20.57,12.41 36.29,28.91 47.15,49.47 10.87,20.57 16.3,42.69 16.3,66.36 0,4.27 -0.19,8.54 -0.58,12.81 0,4.26 0,9.12 0,14.55l-229.93 0c1.17,22.12 6.21,40.55 15.14,55.3 9.31,14.35 20.76,25.22 34.34,32.59 13.97,7.38 28.72,11.06 44.24,11.06 20.18,0 37.06,-4.65 50.64,-13.97 13.58,-9.31 23.48,-21.92 29.69,-37.83l48.31 0c-7.76,26.77 -22.7,49.08 -44.82,66.94 -21.73,17.46 -49.67,26.19 -83.82,26.19zm0 -261.36c-23.28,0 -44.04,7.18 -62.28,21.54 -17.85,13.97 -28.14,34.54 -30.85,61.7l181.61 0c-1.17,-26 -10.09,-46.37 -26.78,-61.12 -16.68,-14.74 -37.25,-22.12 -61.7,-22.12z"/>
  </g>
  <polygon class="fil2" points="923.12,-2062.55 722.25,-1932.69 1173.34,-1641.09 1624.43,-1932.69 1423.56,-2062.55 1173.34,-1900.79 "/>
 </g>
</svg>
